# Alias OBJ Model File
# Exported from SketchUp, (c) 2000-2012 Trimble Navigation Limited
# File units = feet

mtllib room.mtl

g Mesh1 Group1 Model

usemtl matrix
v 0 0 -0
vt 0 0
vn 0 1 -0
v 3.89075 0 -0
vt 321.55 0
v 3.89075 0 -20.9968
vt 321.55 2832.18
v 0 0 -20.9968
vt 0 2832.18
f 1/1/1 2/2/1 3/3/1 4/4/1 

vn -1 0 -0
v 3.89075 3.49569 -0
vt 0 471.521
v 3.89075 3.49569 -20.9968
vt -1735.27 471.521
vt -1735.27 0
f 2/1/2 5/5/2 6/6/2 3/7/2 

vt -321.55 0
vn 0 -1 -0
v 0 3.49569 -0
v 0 3.49569 -20.9968
vt -321.55 2832.18
f 5/8/3 7/1/3 8/4/3 6/9/3 

vn 1 0 -0
vt 1735.27 0
vt 1735.27 471.521
f 7/5/4 1/1/4 4/10/4 8/11/4 

vn 0 0 1
vt 321.55 471.521
f 8/5/5 4/1/5 3/2/5 6/12/5 

